{"title":"Legacy.Black.Ops.2010.720p.BRRip.x264.Feel-Free ","uid":6242667,"size":2417498985,"categoryP":"video","categoryS":"hd___movies","magnet":"?xt=urn:btih:e9705a85fdb5cf755ce77874dc0f608198b75bca&amp;dn=Legacy.Black.Ops.2010.720p.BRRip.x264.Feel-Free+&amp;tr=udp%3A%2F%2Ftracker.openbittorrent.com%3A80&amp;tr=udp%3A%2F%2Fopen.demonii.com%3A1337&amp;tr=udp%3A%2F%2Ftracker.coppersurfer.tk%3A6969&amp;tr=udp%3A%2F%2Fexodus.desync.com%3A6969","seeders":0,"leechers":1,"uploader":"HeroMaster","files":-1,"time":1300125952,"description":"Legacy.Black.Ops.2010.720p.BRRip.x264.Feel-Free \n\nGenre:Thriller\nLanguage:English\nIMDb:http://www.imdb.com/title/tt1436034/\nSource:BluRay.x264-AVCHD\nSubtitles:Romana\n\nFormat : MPEG-4\nFormat profile : Base Media\nCodec ID : isom\nFile size : 2.25 GiB\nDuration : 1h 32mn\nOverall bit rate : 3 468 Kbps\n\nVideo\nFormat profile : &lt;a class=&quot;__cf_email__&quot; href=&quot;/cdn-cgi/l/email-protection&quot; data-cfemail=&quot;074f6e606f474b332936&quot;&gt;[email&amp;#160;protected]&lt;/a&gt;&lt;script cf-hash='f9e31' type=&quot;text/javascript&quot;&gt;\n/* &lt;![CDATA[ */!function(){try{var t=&quot;currentScript&quot;in document?document.currentScript:function(){for(var t=document.getElementsByTagName(&quot;script&quot;),e=t.length;e--;)if(t[e].getAttribute(&quot;cf-hash&quot;))return t[e]}();if(t&amp;&amp;t.previousSibling){var e,r,n,i,c=t.previousSibling,a=c.getAttribute(&quot;data-cfemail&quot;);if(a){for(e=&quot;&quot;,r=parseInt(a.substr(0,2),16),n=2;a.length-n;n+=2)i=parseInt(a.substr(n,2),16)^r,e+=String.fromCharCode(i);e=document.createTextNode(e),c.parentNode.replaceChild(e,c)}}}catch(u){}}();/* ]]&gt; */&lt;/script&gt;\nFormat settings, CABAC : Yes\nFormat settings, ReFrames : 3 frames\nCodec ID : avc1\nCodec ID/Info : Advanced Video Coding\nDuration : 1h 32mn\nBit rate mode : Variable\nBit rate : 3 117 Kbps\nMaximum bit rate : 14.4 Mbps\nWidth : 1 280 pixels\nHeight : 528 pixels\nDisplay aspect ratio : 2.40:1\nFrame rate mode : Constant\nFrame rate : 24.000 fps\nColor space : YUV\nChroma subsampling : 4:2:0\nBit depth : 8 bits\nScan type : Progressive\nBits/(Pixel*Frame) : 0.192\nStream size : 1.96 GiB (87%)\nWriting library : x264\n\nAudio\nID : 2\nFormat : AAC\nFormat/Info : Advanced Audio Codec\nFormat version : Version 4\nFormat profile : LC\nFormat settings, SBR : No\nCodec ID : 40\nDuration : 1h 32mn\nBit rate mode : Variable\nBit rate : 441 Kbps\nMaximum bit rate : 534 Kbps\nChannel(s) : 6 channels\nChannel positions : Front: L C R, Side: L R, LFE\nSampling rate : 48.0 KHz\nStream size : 293 MiB (13%)\n\n\nPlot:\n\nBlack Ops operative Malcolm Gray returns home after a botched mission in Eastern Europe. Holed up in a Brooklyn motel room.\n\n\nScreens:\n\n &lt;a href=&quot;\nhttp://leetleech.org/images/14439227422251994917.jpg&quot; rel=&quot;nofollow&quot; target=&quot;_NEW&quot;&gt;\nhttp://leetleech.org/images/14439227422251994917.jpg&lt;/a&gt;\n &lt;a href=&quot;\nhttp://leetleech.org/images/14885561660132510777.jpg&quot; rel=&quot;nofollow&quot; target=&quot;_NEW&quot;&gt;\nhttp://leetleech.org/images/14885561660132510777.jpg&lt;/a&gt;\n &lt;a href=&quot;\nhttp://leetleech.org/images/75497435512120346685.jpg&quot; rel=&quot;nofollow&quot; target=&quot;_NEW&quot;&gt;\nhttp://leetleech.org/images/75497435512120346685.jpg&lt;/a&gt;\n\n\nENJOY!","torrent":{"xt":"urn:btih:e9705a85fdb5cf755ce77874dc0f608198b75bca","amp;dn":"Legacy.Black.Ops.2010.720p.BRRip.x264.Feel-Free+","amp;tr":["udp%3A%2F%2Ftracker.openbittorrent.com%3A80","udp%3A%2F%2Fopen.demonii.com%3A1337","udp%3A%2F%2Ftracker.coppersurfer.tk%3A6969","udp%3A%2F%2Fexodus.desync.com%3A6969"],"infoHash":"e9705a85fdb5cf755ce77874dc0f608198b75bca","infoHashBuffer":{"type":"Buffer","data":[233,112,90,133,253,181,207,117,92,231,120,116,220,15,96,129,152,183,91,202]},"announce":[],"urlList":[]}}